# xmcd
#
# Track frame offsets: 
#        150
#        16803
#        39284
#        61547
#        83978
#        101691
#        124990
#        140301
#        159581
#        177574
#        195506
#
# Disc length: 2960 seconds
#
# Revision: 2
# Processed by: cddbd v1.5.2PL0 Copyright (c) Steve Scherf et al.
# Submitted via: ExactAudioCopy v1.3
#
DISCID=870b8e0b
DTITLE=Cree - Wyjdz...
DYEAR=2013
DGENRE=Rock/Blues
TTITLE0=Ja Wiem I Ty To Wiesz
TTITLE1=Jestem Tu Dla Ciebie
TTITLE2=Wierzyc Chce W Marzenia 
TTITLE3=Biuro Ludzi Znalezionych
TTITLE4=Byc Nie Moge
TTITLE5=Wieczne Pytania
TTITLE6=Czego Chcesz Ode Mnie
TTITLE7=Ciemnosci Blask
TTITLE8=Wyjdz
TTITLE9=Moja Halucynacja
TTITLE10=Szaman
EXTD=
EXTT0=
EXTT1=
EXTT2=
EXTT3=
EXTT4=
EXTT5=
EXTT6=
EXTT7=
EXTT8=
EXTT9=
EXTT10=
PLAYORDER=
